<svg version="1.1" viewBox="0.0 0.0 393.6010498687664 273.6010498687664" fill="none" stroke="none" stroke-linecap="square" stroke-miterlimit="10" xmlns:xlink="http://www.w3.org/1999/xlink" xmlns="http://www.w3.org/2000/svg"><clipPath id="g2b3332ee8cf_0_195.0"><path d="m0 0l393.60104 0l0 273.60104l-393.60104 0l0 -273.60104z" clip-rule="nonzero"/></clipPath><g clip-path="url(#g2b3332ee8cf_0_195.0)"><path fill="#000000" fill-opacity="0.0" d="m0 0l393.60104 0l0 273.60104l-393.60104 0z" fill-rule="evenodd"/><path fill="#2a7f66" d="m102.31279 71.63502l89.90071 0l0 89.9007l-89.90071 0z" fill-rule="evenodd"/><path fill="#ffffff" d="m154.51118 85.23724l23.5 62.78125l-14.359375 0l-4.71875 -13.96875l-23.5 0l-4.953125 14.015625l-13.968742 0l23.859367 -62.828125l14.140625 0zm-7.3125 15.46875l-8.15625 23.078125l16.28125 0l-7.90625 -23.078125l-0.21875 0z" fill-rule="nonzero"/><path fill="#2a7f66" d="m102.31279 181.3841l89.90071 0l0 89.900696l-89.90071 0z" fill-rule="evenodd"/><path fill="#ffffff" d="m173.02681 194.98631l0 11.609375l-18.859375 0l0 51.218765l-13.796875 0l0 -51.218765l-18.828117 0l0 -11.609375l51.484367 0z" fill-rule="nonzero"/><path fill="#37248f" d="m3.2332685 71.63502l89.90071 0l0 89.9007l-89.90071 0z" fill-rule="evenodd"/><path fill="#ffffff" d="m47.34964 83.73724q11.390625 0 18.265625 5.296875q6.875 5.28125 6.875 14.9375l-13.375 0q-0.296875 -4.71875 -3.21875 -7.09375q-2.921875 -2.390625 -9.109375 -2.390625q-4.203125 0 -6.890625 1.84375q-2.6875 1.84375 -2.6875 5.28125q0 2.359375 1.109375 3.53125q1.125 1.15625 4.578125 2.421875q3.46875 1.265625 15.109375 4.015625q7.8125 1.890625 12.1875 6.40625q4.390625 4.515625 4.390625 11.421875q0 9.109375 -6.828125 14.640625q-6.828125 5.515625 -19.25 5.515625q-11.859375 0 -19.34375 -5.84375q-7.46875 -5.84375 -7.46875 -16.15625l0 -0.34375l13.359375 0q0.09375 5.84375 3.90625 8.734375q3.828125 2.875 10.015625 2.875q5.59375 0 8.921875 -2.046875q3.328125 -2.046875 3.328125 -5.78125q0 -3.046875 -2.5625 -5.0q-2.546875 -1.953125 -8.171875 -3.375q-7.21875 -1.640625 -13.109375 -3.453125q-5.890625 -1.828125 -9.734375 -5.9375q-3.84375 -4.109375 -3.84375 -10.5q0 -8.46875 6.765625 -13.734375q6.765625 -5.265625 16.78125 -5.265625z" fill-rule="nonzero"/><path fill="#913167" d="m3.2332685 181.3841l89.90071 0l0 89.900696l-89.90071 0z" fill-rule="evenodd"/><path fill="#ffffff" d="m47.34964 193.48631q11.390625 0 18.265625 5.296875q6.875 5.28125 6.875 14.9375l-13.375 0q-0.296875 -4.71875 -3.21875 -7.09375q-2.921875 -2.390625 -9.109375 -2.390625q-4.203125 0 -6.890625 1.84375q-2.6875 1.84375 -2.6875 5.28125q0 2.359375 1.109375 3.53125q1.125 1.15625 4.578125 2.421875q3.46875 1.265625 15.109375 4.015625q7.8125 1.890625 12.1875 6.40625q4.390625 4.515625 4.390625 11.421875q0 9.109375 -6.828125 14.640625q-6.828125 5.5156403 -19.25 5.5156403q-11.859375 0 -19.34375 -5.8437653q-7.46875 -5.84375 -7.46875 -16.15625l0 -0.34375l13.359375 0q0.09375 5.84375 3.90625 8.734375q3.828125 2.875 10.015625 2.875q5.59375 0 8.921875 -2.046875q3.328125 -2.046875 3.328125 -5.78125q0 -3.046875 -2.5625 -5.0q-2.546875 -1.953125 -8.171875 -3.375q-7.21875 -1.640625 -13.109375 -3.453125q-5.890625 -1.828125 -9.734375 -5.9375q-3.84375 -4.109375 -3.84375 -10.5q0 -8.46875 6.765625 -13.734375q6.765625 -5.265625 16.78125 -5.265625z" fill-rule="nonzero"/><path fill="#e49800" d="m18.503838 1.0007166l59.39142 0l0 59.39142l-59.39142 0z" fill-rule="evenodd"/><path fill="#000000" fill-opacity="0.0" d="m147.26314 161.53572l0 19.79715" fill-rule="evenodd"/><path stroke="#ffffff" stroke-width="8.0" stroke-linejoin="round" stroke-linecap="butt" d="m147.26314 161.53572l0 19.79715" fill-rule="evenodd"/><path fill="#000000" fill-opacity="0.0" d="m246.35858 60.392136l0 120.95239" fill-rule="evenodd"/><path stroke="#ffffff" stroke-width="8.0" stroke-linejoin="round" stroke-linecap="butt" d="m246.35858 60.392136l0 120.95239" fill-rule="evenodd"/><path fill="#37248f" d="m216.66287 1.0007166l59.39142 0l0 59.39142l-59.39142 0z" fill-rule="evenodd"/><path fill="#37248f" d="m201.3923 181.3841l89.90073 0l0 89.900696l-89.90073 0z" fill-rule="evenodd"/><path fill="#ffffff" d="m254.87976 194.98631q7.59375 0 12.8125 4.90625q5.234375 4.890625 5.234375 12.453125q0 5.9375 -2.484375 9.828125q-2.46875 3.890625 -7.484375 5.90625l0 0.171875q4.421875 1.15625 6.78125 5.28125q2.359375 4.125 2.578125 12.640625q0.171875 8.5 2.453125 11.64064l-13.84375 0q-1.203125 -3.0468903 -1.625 -9.89064q-0.640625 -9.28125 -3.125 -11.953125q-2.46875 -2.6875 -7.578125 -2.6875l-14.140625 0l0 24.531265l-13.828125 0l0 -62.82814l34.25 0zm-4.984375 28.40625q4.328125 0 6.75 -2.09375q2.4375 -2.109375 2.4375 -6.890625q0 -4.46875 -2.34375 -6.5625q-2.34375 -2.109375 -6.84375 -2.109375l-15.4375 0l0 17.65625l15.4375 0z" fill-rule="nonzero"/><path fill="#e49800" d="m201.3923 71.63502l89.90073 0l0 89.9007l-89.90073 0z" fill-rule="evenodd"/><path fill="#ffffff" d="m231.95593 85.23724l14.6875 43.1875l0.171875 0l13.875 -43.015625l0.09375 -0.171875l19.375 0l0 62.828125l-12.9375 0l0 -44.515625l-0.171875 0l-15.375 44.515625l-10.65625 0l-15.421875 -44.09375l-0.171875 0l0 44.09375l-12.9375 0l0 -62.828125l19.46875 0z" fill-rule="nonzero"/><path fill="#2a7f66" d="m300.47183 71.32191l89.900696 0l0 89.9007l-89.900696 0z" fill-rule="evenodd"/><path fill="#ffffff" d="m369.9749 84.92413l0 11.609375l-33.171875 0l0 13.453125l30.421875 0l0 10.734375l-30.421875 0l0 15.421875l33.859375 0l0 11.609375l-47.6875 0l0 -62.828125l47.0 0z" fill-rule="nonzero"/><path fill="#000000" fill-opacity="0.0" d="m300.48233 181.3954l89.88974 0l0 89.889755l-89.88974 0z" fill-rule="evenodd"/><path fill="#ffffff" d="m355.4565 196.19528l0 61.625l-12.5 0l0 -39.96875l-15.46875 0l0 -9.40625l0.8125 0q7.5625 0 11.921875 -3.109375q4.375 -3.125 5.265625 -9.140625l9.96875 0z" fill-rule="nonzero"/></g></svg>