<svg version="1.1" viewBox="0.0 0.0 393.6010498687664 273.6010498687664" fill="none" stroke="none" stroke-linecap="square" stroke-miterlimit="10" xmlns:xlink="http://www.w3.org/1999/xlink" xmlns="http://www.w3.org/2000/svg"><clipPath id="g2b3332ee8cf_0_217.0"><path d="m0 0l393.60104 0l0 273.60104l-393.60104 0l0 -273.60104z" clip-rule="nonzero"/></clipPath><g clip-path="url(#g2b3332ee8cf_0_217.0)"><path fill="#000000" fill-opacity="0.0" d="m0 0l393.60104 0l0 273.60104l-393.60104 0z" fill-rule="evenodd"/><path fill="#2a7f66" d="m102.31279 71.63502l89.90071 0l0 89.9007l-89.90071 0z" fill-rule="evenodd"/><path fill="#ffffff" d="m154.72635 84.40662l24.203125 64.671875l-14.78125 0l-4.859375 -14.390625l-24.21875 0l-5.09375 14.4375l-14.390625 0l24.578125 -64.71875l14.5625 0zm-7.53125 15.9375l-8.40625 23.765625l16.78125 0l-8.15625 -23.765625l-0.21875 0z" fill-rule="nonzero"/><path fill="#2a7f66" d="m102.31279 181.3841l89.90071 0l0 89.900696l-89.90071 0z" fill-rule="evenodd"/><path fill="#ffffff" d="m173.79367 194.15569l0 11.953125l-19.421875 0l0 52.76564l-14.21875 0l0 -52.76564l-19.390625 0l0 -11.953125l53.03125 0z" fill-rule="nonzero"/><path fill="#37248f" d="m3.2332685 71.63502l89.90071 0l0 89.9007l-89.90071 0z" fill-rule="evenodd"/><path fill="#ffffff" d="m47.31591 82.85974q11.734375 0 18.8125 5.453125q7.09375 5.4375 7.09375 15.390625l-13.765625 0q-0.3125 -4.859375 -3.328125 -7.3125q-3.015625 -2.46875 -9.390625 -2.46875q-4.328125 0 -7.09375 1.90625q-2.765625 1.90625 -2.765625 5.453125q0 2.421875 1.140625 3.625q1.15625 1.1875 4.71875 2.5q3.5625 1.296875 15.5625 4.140625q8.046875 1.9375 12.5625 6.59375q4.515625 4.640625 4.515625 11.765625q0 9.390625 -7.03125 15.078125q-7.03125 5.6875 -19.828125 5.6875q-12.21875 0 -19.921875 -6.015625q-7.703125 -6.015625 -7.703125 -16.640625l0 -0.359375l13.765625 0q0.09375 6.015625 4.03125 8.984375q3.9375 2.96875 10.3125 2.96875q5.75 0 9.171875 -2.09375q3.4375 -2.109375 3.4375 -5.96875q0 -3.140625 -2.640625 -5.15625q-2.625 -2.015625 -8.421875 -3.46875q-7.4375 -1.6875 -13.5 -3.5625q-6.0625 -1.890625 -10.03125 -6.109375q-3.953125 -4.234375 -3.953125 -10.828125q0 -8.71875 6.96875 -14.140625q6.96875 -5.421875 17.28125 -5.421875z" fill-rule="nonzero"/><path fill="#913167" d="m3.2332685 181.3841l89.90071 0l0 89.900696l-89.90071 0z" fill-rule="evenodd"/><path fill="#ffffff" d="m47.31591 192.60881q11.734375 0 18.8125 5.453125q7.09375 5.4375 7.09375 15.390625l-13.765625 0q-0.3125 -4.859375 -3.328125 -7.3125q-3.015625 -2.46875 -9.390625 -2.46875q-4.328125 0 -7.09375 1.90625q-2.765625 1.90625 -2.765625 5.453125q0 2.421875 1.140625 3.625q1.15625 1.1875 4.71875 2.5q3.5625 1.296875 15.5625 4.140625q8.046875 1.9375 12.5625 6.59375q4.515625 4.640625 4.515625 11.765625q0 9.390625 -7.03125 15.078125q-7.03125 5.6875153 -19.828125 5.6875153q-12.21875 0 -19.921875 -6.0156403q-7.703125 -6.015625 -7.703125 -16.640625l0 -0.359375l13.765625 0q0.09375 6.015625 4.03125 8.984375q3.9375 2.96875 10.3125 2.96875q5.75 0 9.171875 -2.09375q3.4375 -2.109375 3.4375 -5.96875q0 -3.140625 -2.640625 -5.15625q-2.625 -2.015625 -8.421875 -3.46875q-7.4375 -1.6875 -13.5 -3.5625q-6.0625 -1.890625 -10.03125 -6.109375q-3.953125 -4.234375 -3.953125 -10.828125q0 -8.71875 6.96875 -14.140625q6.96875 -5.421875 17.28125 -5.421875z" fill-rule="nonzero"/><path fill="#e49800" d="m18.503838 1.0007166l59.39142 0l0 59.39142l-59.39142 0z" fill-rule="evenodd"/><path fill="#000000" fill-opacity="0.0" d="m147.26314 161.53572l0 19.79715" fill-rule="evenodd"/><path stroke="#000000" stroke-width="8.0" stroke-linejoin="round" stroke-linecap="butt" d="m147.26314 161.53572l0 19.79715" fill-rule="evenodd"/><path fill="#000000" fill-opacity="0.0" d="m246.35858 60.392136l0 120.95239" fill-rule="evenodd"/><path stroke="#000000" stroke-width="8.0" stroke-linejoin="round" stroke-linecap="butt" d="m246.35858 60.392136l0 120.95239" fill-rule="evenodd"/><path fill="#37248f" d="m216.66287 1.0007166l59.39142 0l0 59.39142l-59.39142 0z" fill-rule="evenodd"/><path fill="#37248f" d="m201.3923 181.3841l89.90073 0l0 89.900696l-89.90073 0z" fill-rule="evenodd"/><path fill="#ffffff" d="m255.12376 194.15569q7.8437347 0 13.218735 5.046875q5.375 5.046875 5.375 12.84375q0 6.109375 -2.546875 10.109375q-2.546875 4.0 -7.71875 6.09375l0 0.171875q4.5625 1.1875 6.984375 5.4375q2.4375 4.25 2.671875 13.015625q0.171875 8.765625 2.515625 12.000015l-14.25 0q-1.25 -3.1406403 -1.6875 -10.187515q-0.65625 -9.5625 -3.203125 -12.328125q-2.5468597 -2.765625 -7.8124847 -2.765625l-14.5625 0l0 25.281265l-14.265625 0l0 -64.718765l35.28125 0zm-5.125 29.265625q4.46875 0 6.9687347 -2.171875q2.5 -2.171875 2.5 -7.078125q0 -4.609375 -2.421875 -6.78125q-2.4062347 -2.171875 -7.0468597 -2.171875l-15.890625 0l0 18.203125l15.890625 0z" fill-rule="nonzero"/><path fill="#e49800" d="m201.3923 71.63502l89.90073 0l0 89.9007l-89.90073 0z" fill-rule="evenodd"/><path fill="#ffffff" d="m231.51665 84.40662l15.140625 44.484375l0.171875 0l14.29689 -44.3125l0.09375 -0.171875l19.953125 0l0 64.71875l-13.3125 0l0 -45.859375l-0.1875 0l-15.843765 45.859375l-10.96875 0l-15.890625 -45.421875l-0.1875 0l0 45.421875l-13.328125 0l0 -64.71875l20.0625 0z" fill-rule="nonzero"/><path fill="#2a7f66" d="m300.47183 71.32191l89.900696 0l0 89.9007l-89.900696 0z" fill-rule="evenodd"/><path fill="#ffffff" d="m370.72372 84.093506l0 11.953125l-34.171875 0l0 13.859375l31.328125 0l0 11.0625l-31.328125 0l0 15.890625l34.875 0l0 11.953125l-49.140625 0l0 -64.71875l48.4375 0z" fill-rule="nonzero"/><path fill="#ffffff" d="m300.48233 181.3954l89.88974 0l0 89.889755l-89.88974 0z" fill-rule="evenodd"/><path fill="#000000" d="m355.76474 195.3959l0 63.484375l-12.875 0l0 -41.171875l-15.9375 0l0 -9.6875l0.828125 0q7.796875 0 12.28125 -3.203125q4.5 -3.21875 5.4375 -9.421875l10.265625 0z" fill-rule="nonzero"/></g></svg>